<?xml version="1.0"?>
<svg version="1.1" xmlns="http://www.w3.org/2000/svg" width="450px" height="200px" ><path fill="#ffffff" d="M104.15,142l0-5.95l5.25-2.1l0-32.9l-5.25-2.1l0-5.95l16.1-0.35l19.6,0l0,13.3l-6.51,0l-1.75-4.9l-11.34,0l0,12.25l14.49,0l0,7.7l-14.49,0l0,12.95l6.44,2.1l0,5.95l-22.54,0z M153.2557,92.65c0-3.99,2.87-6.3,6.02-6.3c3.64,0,5.88,1.89,5.88,6.3c0,4.13-3.01,6.37-5.88,6.37c-3.78,0-6.02-2.24-6.02-6.37z M165.0157,134.65l4.9,1.75l0,5.6l-21,0l0-5.6l5.6-1.75l0-22.75l-5.6-1.75l0-5.6l16.1-0.35l0,30.45z M194.1714,104.2l0.49,4.83s6.65-5.39,12.88-5.39c6.79,0,10.64,4.83,10.64,12.46l0,18.55l4.9,1.75l0,5.6l-19.25,0l0-5.6l3.85-1.75l0-16.66c0-3.22-1.82-5.6-4.76-5.6c-4.34,0-7.49,3.99-7.49,3.99l0,18.27l3.85,1.75l0,5.6l-19.95,0l0-5.6l5.6-1.75l0-22.75l-5.6-1.75l0-5.6z M256.0171,142l-1.26-4.55s-5.39,5.25-11.34,5.25c-6.79,0-10.92-3.99-10.92-10.99c0-8.26,6.23-11.55,16.87-11.55l4.9,0l0-3.85c0-3.57-1.89-5.11-5.39-5.11c-3.57,0-6.16,1.05-6.16,1.05l-1.05,4.41l-6.3,0l-0.49-10.36s8.47-2.8,15.19-2.8c10.64,0,14.7,3.71,14.7,13.86l0,17.29l5.25,1.26l0,5.6z M254.2671,126.11l-3.99,0c-5.46,0-7.63,1.4-7.63,4.55c0,2.66,1.47,4.2,4.13,4.2c3.71,0,7.49-4.06,7.49-4.06l0-4.69z M292.1728,133.95l0-32.9l-6.65,0l-1.75,6.65l-6.44,0l0-15.05l40.6,0l0,15.05l-6.51,0l-1.75-6.65l-6.65,0l0,32.9l6.65,2.1l0,5.95l-24.15,0l0-5.95z M349.8185,142l-1.26-4.55s-5.39,5.25-11.34,5.25c-6.79,0-10.92-3.99-10.92-10.99c0-8.26,6.23-11.55,16.87-11.55l4.9,0l0-3.85c0-3.57-1.89-5.11-5.39-5.11c-3.57,0-6.16,1.05-6.16,1.05l-1.05,4.41l-6.3,0l-0.49-10.36s8.47-2.8,15.19-2.8c10.64,0,14.7,3.71,14.7,13.86l0,17.29l5.25,1.26l0,5.6z M348.0685,126.11l-3.99,0c-5.46,0-7.63,1.4-7.63,4.55c0,2.66,1.47,4.2,4.13,4.2c3.71,0,7.49-4.06,7.49-4.06l0-4.69z M388.0042,134.65l6.3,1.75l0,5.6l-22.47,0l0-5.6l5.6-1.75l0-39.34l-5.6-1.4l0-5.6l16.17-0.56l0,46.9z M417.0199,118.27l4.62,0l4.76-7.14l-3.08-0.98l0-5.6l18.06-0.35l0,5.95l-4.9,0.91l-6.51,9.17l7.84,14.49l5.32,1.68l0,5.6l-12.95,0l-8.68-17.08l-4.48,0l0,9.73l3.85,1.75l0,5.6l-19.95,0l0-5.6l5.6-1.75l0-39.34l-5.6-1.4l0-5.6l16.1-0.56l0,30.52z"/><path fill="#" d=""/></svg>
